<?xml version="1.0" standalone="no"?>
<!DOCTYPE svg PUBLIC "-//W3C//DTD SVG 1.1//EN" "http://www.w3.org/Graphics/SVG/1.1/DTD/svg11.dtd" >
<svg xmlns="http://www.w3.org/2000/svg">
<metadata>Generated by IcoMoon</metadata>
<defs>
<font id="icomoon" horiz-adv-x="1024">
<font-face units-per-em="1024" ascent="960" descent="-64" />
<missing-glyph horiz-adv-x="1024" />
<glyph unicode="&#x20;" horiz-adv-x="512" d="" />
<glyph unicode="&#xe900;" glyph-name="free-mourning-vector-icon-set" horiz-adv-x="1113" d="M0.341 18.603l0.341 82.944 8.533-52.907c4.437-29.013 9.216-57.344 10.581-62.464 2.048-7.509 7.509 9.216 26.283 79.189 12.971 49.152 24.576 87.723 25.941 86.357 1.024-1.365 4.096-31.744 6.144-67.243 5.803-92.843 7.851-113.323 10.581-105.472 1.365 3.413 12.288 46.080 24.235 94.208 11.947 48.469 22.528 88.064 23.552 88.064s12.971-37.547 26.965-83.285c13.653-45.739 26.283-85.333 27.989-88.064 1.707-2.389 3.072 12.288 3.413 36.523 0.341 22.528 1.365 50.859 2.731 62.805l2.048 21.504 27.307-48.811c25.6-46.080 28.331-49.152 38.571-50.176l10.923-1.024 0.683 373.077 1.024 373.077 9.899 23.211c35.84 85.333 111.616 152.917 195.243 174.421 29.355 7.509 120.149 7.509 149.504 0 28.331-7.509 66.56-25.6 91.819-43.691 42.325-30.037 83.627-82.603 102.741-130.048l9.216-22.869-0.341-373.419v-373.419h9.216c8.533 0.341 12.629 5.12 40.277 51.2 17.749 29.696 31.061 48.811 31.744 45.397 0.341-3.413 2.048-33.109 3.413-65.877l2.389-59.733 26.965 89.771c15.019 49.152 28.331 88.405 29.696 87.040 1.024-1.707 12.629-45.056 25.6-96.597s23.893-90.795 24.235-87.040c0.341 3.755 3.072 46.080 6.144 93.867s6.144 87.381 6.827 88.064c1.365 1.365 7.509-19.797 31.403-108.203 10.923-40.277 20.48-70.315 21.163-66.56 0.683 3.413 4.779 27.307 8.875 52.565l7.851 46.080 0.341-72.704 0.341-72.363h-1112.747l0.341 82.603zM564.907 644.949v84.651l71.68 3.413v30.72l-71.68 3.413v63.147h-29.013v-30.379c0-20.821-1.365-31.403-4.096-33.109-2.389-1.707-19.456-2.389-37.547-2.048l-33.451 0.341v-33.792h75.435l-2.048-170.667h30.72v84.309z" />
<glyph unicode="&#xe901;" glyph-name="birthday-cake" d="M1024 146.286v-219.429h-1024v219.429c56 0 85.714 25.143 109.143 45.143 19.429 17.143 32.571 28 61.714 28s41.714-10.857 61.714-28c23.429-20 52.571-45.143 109.143-45.143 56 0 85.143 25.143 109.143 45.143 19.429 17.143 32 28 61.143 28s42.286-10.857 61.714-28c23.429-20 53.143-45.143 109.143-45.143s85.714 25.143 109.143 45.143c19.429 17.143 32.571 28 61.714 28 28.571 0 41.714-10.857 61.143-28 23.429-20 53.143-45.143 109.143-45.143zM1024 329.143v-109.714c-29.143 0-41.714 10.857-61.714 28-23.429 20-52.571 45.143-108.571 45.143-56.571 0-85.714-25.143-109.143-45.143-20-17.143-32.571-28-61.714-28s-42.286 10.857-61.714 28c-23.429 20-52.571 45.143-109.143 45.143-56 0-85.143-25.143-109.143-45.143-19.429-17.143-32-28-61.143-28s-42.286 10.857-61.714 28c-23.429 20-53.143 45.143-109.143 45.143-56.571 0-85.714-25.143-109.143-45.143-19.429-17.143-32.571-28-61.714-28v109.714c0 60.571 49.143 109.714 109.714 109.714h36.571v256h146.286v-256h146.286v256h146.286v-256h146.286v256h146.286v-256h36.571c60.571 0 109.714-49.143 109.714-109.714zM292.571 822.857c0-60.571-32.571-91.429-73.143-91.429s-73.143 32.571-73.143 73.143c0 70.857 73.143 52.571 73.143 146.286 27.429 0 73.143-67.429 73.143-128zM585.143 822.857c0-60.571-32.571-91.429-73.143-91.429s-73.143 32.571-73.143 73.143c0 70.857 73.143 52.571 73.143 146.286 27.429 0 73.143-67.429 73.143-128zM877.714 822.857c0-60.571-32.571-91.429-73.143-91.429s-73.143 32.571-73.143 73.143c0 70.857 73.143 52.571 73.143 146.286 27.429 0 73.143-67.429 73.143-128z" />
<glyph unicode="&#xe902;" glyph-name="wifi-connected" horiz-adv-x="1314" d="M638.018-62.221c-16.177 1.941-39.472 9.706-55.649 18.765-10.030 5.662-17.956 11.971-29.118 23.133s-17.471 19.089-23.133 29.118c-46.266 82.664-7.441 185.226 80.885 213.536 40.119 12.942 82.826 8.412 120.195-12.456 18.927-10.677 41.575-33.324 52.252-52.252 20.706-37.045 25.236-80.399 12.456-120.033-17.633-54.84-64.708-93.341-122.621-99.973-15.692-1.779-18.927-1.779-35.266 0.162zM384.526 299.658c-22.809 22.809-41.575 42.707-41.575 44.163 0 2.75 17.148 18.927 37.207 34.78 86.87 69.399 201.726 104.018 312.215 94.473 101.915-8.897 189.432-46.751 265.787-115.342 6.794-6.309 12.456-12.456 12.456-13.912 0-3.397-82.502-85.9-85.9-85.9-1.294 0-5.015 2.588-8.088 5.824-16.824 17.633-51.928 41.575-81.532 55.81-34.133 16.339-68.752 26.207-107.9 30.413-79.267 8.736-165.652-17.309-231.007-69.399-7.603-6.147-16.339-13.589-19.251-16.824-3.074-3.235-6.794-5.824-8.25-5.824-1.294 0-21.192 18.765-44.163 41.736zM213.050 471.133c-22.809 22.809-41.575 42.707-41.575 44.163 0 1.294 8.897 10.515 19.898 20.545 52.252 47.56 99.488 79.591 163.711 111.136 77.326 38.016 155.784 59.855 241.036 67.134 25.236 2.265 96.415 2.265 122.136 0 61.634-5.338 124.562-19.574 182.799-41.575 64.87-24.589 131.68-62.767 186.035-106.444 23.133-18.442 55.002-48.045 55.002-50.796 0-3.074-82.341-85.9-85.414-85.9-1.132 0-9.544 6.794-18.603 15.045-79.914 72.958-173.579 120.033-279.376 140.092-61.311 11.647-140.254 11.647-203.021 0-87.032-16.015-169.049-52.413-239.904-106.121-14.559-11.162-45.134-37.369-51.928-44.81-2.265-2.265-5.177-4.206-6.471-4.206-1.456 0-21.354 18.765-44.325 41.736zM41.575 642.609c-22.809 22.809-41.575 42.384-41.575 43.354 0 2.427 30.251 31.545 53.384 51.443 130.224 111.783 295.553 186.844 464.602 211.271 52.252 7.603 85.738 9.868 138.798 9.868 150.122 0 284.552-31.707 418.821-98.679 67.134-33.486 135.886-79.752 193.476-130.224 18.118-15.692 44.487-41.898 44.487-43.839 0-2.427-82.988-84.929-85.414-84.929-1.132 0-11.647 8.897-23.457 19.574-60.664 55.81-121.165 97.385-194.447 133.298-85.414 41.898-175.682 67.943-273.39 78.782-26.368 2.912-133.783 2.912-160.152 0-179.24-19.898-337.127-91.723-469.293-213.212-10.839-10.191-20.868-18.442-22.001-18.442s-20.868 18.765-43.839 41.736z" />
<glyph unicode="&#xe903;" glyph-name="poet-photo-placeholder" d="M19.958-67.070h982.549c-75.226 297.835-204.186 201.115-325.469 288.624 0 27.634 3.070 41.451-7.676 67.55 35.31-15.352 19.958-44.522 19.958-70.621 24.564 3.070 53.733 30.705 62.945 55.268 13.817 33.775-4.606 72.156-6.141 109.001-4.606 76.762-12.282 139.706-32.24 205.721-15.352 50.663-53.733 116.678-75.226 156.594s-82.903 92.114-125.889 109.001c-35.31 15.352-66.015 1.535-102.861-1.535-35.31-4.606-53.733-16.888-81.367-38.381-55.268-42.987-69.085-79.832-92.114-144.312-58.339-159.664-12.282-210.327-41.451-314.723-16.888-58.339-36.846-49.127-50.663-62.945 29.169-15.352 44.522 9.211 64.48 13.817-7.676-24.564-62.945-44.522-72.156-59.874 32.24-16.888 53.733-1.535 81.367-4.606l-15.352-15.352c70.621-3.070 136.636 56.804 147.382 58.339l1.535-41.451c-19.958-23.028-165.805-107.466-199.58-122.819-105.931-50.663-119.748-62.945-133.565-188.834z" />
<glyph unicode="&#xe904;" glyph-name="logo" horiz-adv-x="3851" d="M1650.924 960.14c-12.491-10.409-52.047-45.801-68.702-52.047l-322.69-102.012c-10.409-2.082 324.772 83.275 312.281 70.784-29.146-29.146-64.538-120.749-102.012-129.076l-301.871-60.374c-10.409-2.082 301.871 47.883 295.626 39.556-35.392-47.883-60.374-118.667-110.339-131.158l-287.298-72.865c-8.327-2.082 283.134 54.129 278.971 47.883-49.965-81.193-83.275-139.485-129.076-166.55 0 0-126.994-12.491-195.696 2.082l-139.485-276.889h-49.965c64.538 301.871 343.509 841.076 818.175 832.748zM4.164 960.14c12.491-10.409 52.047-45.801 68.702-52.047l322.69-102.012c10.409-2.082-324.772 83.275-312.281 70.784 29.146-29.146 64.538-120.749 102.012-129.076l301.871-60.374c10.409-2.082-301.871 47.883-295.626 39.556 35.392-47.883 60.374-118.667 110.339-131.158l287.298-72.865c8.327-2.082-283.134 54.129-278.971 47.883 49.965-81.193 83.275-139.485 129.076-166.55 0 0 126.994-12.491 195.696 2.082l139.485-276.889h49.965c-64.538 301.871-343.509 841.076-818.175 832.748zM1609.286-45.403c0-2.082 0-4.164-2.082-6.246 0-2.082-2.082-2.082-6.246-4.164-2.082 0-6.246-2.082-10.409-2.082s-8.327 0-14.573 0c-6.246 0-12.491 0-16.655 0s-8.327 2.082-10.409 2.082c-2.082 2.082-4.164 2.082-4.164 4.164s-2.082 4.164-2.082 6.246v49.965c-20.819-24.982-43.719-41.637-64.538-52.047s-41.637-16.655-64.538-16.655c-24.982 0-47.883 4.164-64.538 12.491s-31.228 20.819-41.637 35.392c-10.409 14.573-18.737 31.228-22.901 49.965s-6.246 43.719-6.246 70.784v231.088c0 2.082 0 4.164 2.082 6.246 0 2.082 2.082 2.082 6.246 4.164 2.082 2.082 6.246 2.082 10.409 2.082s10.409 0 16.655 0c6.246 0 12.491 0 16.655 0s8.327-2.082 10.409-2.082c2.082-2.082 4.164-2.082 6.246-4.164s2.082-4.164 2.082-6.246v-222.76c0-22.901 2.082-39.556 4.164-54.129 4.164-12.491 8.327-24.982 14.573-33.31 6.246-10.409 14.573-16.655 24.982-22.901s22.901-8.327 35.392-8.327c16.655 0 35.392 6.246 52.047 18.737s35.392 31.228 56.211 54.129v266.479c0 2.082 0 4.164 2.082 6.246 0 2.082 2.082 2.082 6.246 4.164 2.082 2.082 6.246 2.082 10.409 2.082s10.409 0 16.655 0c6.246 0 12.491 0 16.655 0s8.327-2.082 10.409-2.082c2.082-2.082 4.164-2.082 6.246-4.164s2.082-4.164 2.082-6.246v-380.982zM1809.146-45.403c0-2.082 0-4.164-2.082-6.246s-2.082-2.082-6.246-4.164c-2.082 0-6.246-2.082-10.409-2.082s-10.409 0-16.655 0c-6.246 0-12.491 0-16.655 0s-8.327 2.082-10.409 2.082c-2.082 2.082-4.164 2.082-6.246 4.164 0 2.082-2.082 4.164-2.082 6.246v566.269c0 2.082 0 4.164 2.082 6.246 0 2.082 2.082 4.164 6.246 4.164 2.082 0 6.246 2.082 10.409 2.082s10.409 0 16.655 0c6.246 0 12.491 0 16.655 0s8.327-2.082 10.409-2.082c2.082-2.082 4.164-2.082 6.246-4.164s2.082-4.164 2.082-6.246v-566.269zM2225.52-45.403c0-4.164-2.082-6.246-4.164-8.327s-6.246-2.082-10.409-4.164c-4.164 0-10.409-2.082-16.655-2.082s-12.491 0-16.655 2.082c-4.164 0-8.327 2.082-10.409 4.164s-2.082 4.164-2.082 8.327v37.474c-16.655-18.737-35.392-31.228-56.211-41.637s-41.637-14.573-64.538-14.573c-20.819 0-37.474 2.082-54.129 8.327s-29.146 12.491-41.637 22.901c-10.409 10.409-20.819 22.901-27.064 37.474s-10.409 31.228-10.409 49.965c0 20.819 4.164 39.556 12.491 56.211s20.819 29.146 37.474 39.556c16.655 10.409 37.474 18.737 60.374 22.901 22.901 6.246 49.965 8.327 79.111 8.327h52.047v29.146c0 14.573-2.082 27.064-4.164 39.556-4.164 10.409-8.327 20.819-14.573 29.146s-16.655 12.491-27.064 16.655c-10.409 4.164-24.982 6.246-41.637 6.246s-33.31-2.082-45.801-6.246c-14.573-4.164-24.982-8.327-35.392-14.573-10.409-4.164-18.737-10.409-24.982-14.573s-12.491-6.246-14.573-6.246c-2.082 0-4.164 0-6.246 2.082-2.082 0-4.164 2.082-4.164 4.164-2.082 2.082-2.082 4.164-2.082 8.327s0 8.327 0 12.491c0 6.246 0 12.491 2.082 16.655 0 4.164 4.164 8.327 6.246 12.491 4.164 4.164 10.409 8.327 18.737 12.491s20.819 10.409 31.228 14.573c12.491 4.164 24.982 8.327 39.556 10.409s29.146 4.164 43.719 4.164c27.064 0 49.965-2.082 70.784-8.327 18.737-6.246 35.392-14.573 45.801-27.064 12.491-12.491 20.819-27.064 24.982-43.719 6.246-18.737 8.327-39.556 8.327-62.456v-258.152zM2156.818 129.474h-60.374c-18.737 0-35.392-2.082-49.965-4.164-14.573-4.164-24.982-8.327-35.392-14.573-8.327-6.246-16.655-14.573-20.819-22.901s-6.246-18.737-6.246-31.228c0-20.819 6.246-35.392 18.737-47.883s29.146-16.655 52.047-16.655c18.737 0 35.392 4.164 49.965 14.573 16.655 8.327 31.228 22.901 49.965 43.719v81.193zM2681.45-45.403c0-2.082 0-4.164-2.082-6.246s-2.082-2.082-6.246-4.164c-2.082 0-6.246-2.082-10.409-2.082s-10.409 0-16.655 0c-6.246 0-12.491 0-16.655 0s-8.327 2.082-10.409 2.082c-2.082 2.082-4.164 2.082-6.246 4.164s-2.082 4.164-2.082 6.246v222.76c0 20.819-2.082 39.556-4.164 52.047-4.164 12.491-8.327 24.982-14.573 35.392s-14.573 16.655-24.982 22.901c-10.409 4.164-22.901 8.327-35.392 8.327-16.655 0-35.392-6.246-52.047-18.737s-35.392-31.228-54.129-54.129v-266.479c0-2.082 0-4.164-2.082-6.246s-2.082-2.082-6.246-4.164c-2.082 0-6.246-2.082-10.409-2.082s-10.409 0-16.655 0c-6.246 0-12.491 0-16.655 0s-8.327 2.082-10.409 2.082c-2.082 2.082-4.164 2.082-6.246 4.164 0 2.082-2.082 4.164-2.082 6.246v566.269c0 2.082 0 4.164 2.082 6.246 0 2.082 2.082 4.164 6.246 4.164 2.082 0 6.246 2.082 10.409 2.082s10.409 0 16.655 0c6.246 0 12.491 0 16.655 0s8.327-2.082 10.409-2.082c2.082-2.082 4.164-2.082 6.246-4.164s2.082-4.164 2.082-6.246v-226.924c20.819 20.819 39.556 37.474 60.374 47.883s41.637 14.573 60.374 14.573c24.982 0 45.801-4.164 64.538-12.491 16.655-8.327 31.228-20.819 41.637-35.392s18.737-31.228 22.901-49.965c4.164-18.737 6.246-43.719 6.246-70.784v-233.17zM3133.215 162.784c0-10.409-2.082-18.737-8.327-22.901s-12.491-6.246-18.737-6.246h-249.824c0-20.819 2.082-39.556 6.246-58.292 4.164-16.655 10.409-31.228 20.819-43.719s22.901-20.819 37.474-27.064c16.655-6.246 35.392-10.409 58.292-10.409 18.737 0 33.31 2.082 47.883 4.164s27.064 6.246 37.474 10.409c10.409 4.164 18.737 6.246 24.982 10.409 6.246 2.082 12.491 4.164 14.573 4.164s4.164 0 6.246-2.082c2.082 0 2.082-2.082 4.164-4.164 0-2.082 2.082-4.164 2.082-8.327s0-8.327 0-12.491c0-4.164 0-6.246 0-10.409 0-2.082 0-4.164 0-6.246s-2.082-4.164-2.082-6.246c0-2.082-2.082-4.164-4.164-4.164-2.082-2.082-6.246-4.164-14.573-8.327s-16.655-6.246-29.146-10.409c-12.491-4.164-27.064-6.246-41.637-8.327-16.655-2.082-33.31-4.164-49.965-4.164-31.228 0-58.292 4.164-83.275 12.491-22.901 8.327-43.719 20.819-60.374 39.556-16.655 16.655-29.146 39.556-35.392 64.538-8.327 24.982-12.491 56.211-12.491 91.602 0 33.31 4.164 62.456 12.491 87.439 8.327 27.064 20.819 47.883 37.474 66.62s35.392 31.228 58.292 41.637c22.901 10.409 47.883 14.573 74.947 14.573 29.146 0 56.211-4.164 77.029-14.573s37.474-22.901 52.047-39.556c12.491-16.655 22.901-35.392 29.146-58.292 6.246-20.819 10.409-45.801 10.409-70.784v-12.491zM3062.432 183.602c0 37.474-6.246 66.62-24.982 87.439-16.655 20.819-41.637 31.228-77.029 31.228-16.655 0-33.31-4.164-45.801-10.409s-22.901-14.573-33.31-27.064c-8.327-10.409-16.655-22.901-20.819-37.474s-8.327-29.146-8.327-45.801h208.187zM3474.642-24.585c0-6.246 0-10.409-2.082-14.573 0-4.164-2.082-6.246-2.082-10.409-2.082-2.082-2.082-4.164-4.164-4.164s-4.164-2.082-6.246-2.082h-235.251c-6.246 0-10.409 2.082-14.573 6.246s-6.246 10.409-6.246 20.819v14.573c0 4.164 0 8.327 0 10.409 0 4.164 2.082 6.246 2.082 10.409 2.082 2.082 2.082 6.246 4.164 10.409s4.164 8.327 6.246 12.491l168.632 260.234h-162.386c-4.164 0-8.327 2.082-10.409 6.246s-4.164 12.491-4.164 22.901c0 4.164 0 10.409 0 12.491 0 4.164 2.082 6.246 2.082 10.409 2.082 2.082 2.082 4.164 4.164 4.164s4.164 2.082 6.246 2.082h218.596c2.082 0 6.246 0 8.327-2.082 2.082 0 4.164-2.082 6.246-4.164s2.082-4.164 4.164-8.327c0-2.082 2.082-6.246 2.082-12.491v-14.573c0-4.164 0-8.327 0-10.409 0-4.164-2.082-6.246-2.082-10.409-2.082-4.164-2.082-6.246-4.164-10.409s-4.164-8.327-6.246-12.491l-166.55-260.234h179.041c2.082 0 4.164 0 6.246-2.082 2.082 0 4.164-2.082 4.164-4.164 2.082-2.082 2.082-6.246 4.164-8.327 0-4.164 2.082-8.327 2.082-14.573zM3847.297-43.321c0-4.164-2.082-6.246-4.164-8.327s-6.246-2.082-10.409-4.164c-4.164 0-10.409-2.082-16.655-2.082s-12.491 0-16.655 2.082c-4.164 0-8.327 2.082-10.409 4.164s-2.082 4.164-2.082 8.327v37.474c-16.655-18.737-35.392-31.228-56.211-41.637s-41.637-14.573-64.538-14.573c-20.819 0-37.474 2.082-54.129 8.327s-29.146 12.491-41.637 22.901c-10.409 10.409-20.819 22.901-27.064 37.474s-10.409 31.228-10.409 49.965c0 20.819 4.164 39.556 12.491 56.211s20.819 29.146 37.474 39.556c16.655 10.409 37.474 18.737 60.374 22.901 22.901 6.246 49.965 8.327 79.111 8.327h52.047v29.146c0 14.573-2.082 27.064-4.164 39.556-4.164 10.409-8.327 20.819-14.573 29.146s-16.655 12.491-27.064 16.655c-10.409 4.164-24.982 6.246-41.637 6.246s-33.31-2.082-45.801-6.246c-14.573-4.164-24.982-8.327-35.392-14.573-10.409-4.164-18.737-10.409-24.982-14.573s-12.491-6.246-14.573-6.246c-2.082 0-4.164 0-6.246 2.082-2.082 0-4.164 2.082-4.164 4.164-2.082 2.082-2.082 4.164-2.082 8.327s0 8.327 0 12.491c0 6.246 0 12.491 2.082 16.655 0 4.164 4.164 8.327 6.246 12.491 4.164 4.164 10.409 8.327 18.737 12.491s20.819 10.409 31.228 14.573c12.491 4.164 24.982 8.327 39.556 10.409s29.146 4.164 43.719 4.164c27.064 0 49.965-2.082 70.784-8.327 18.737-6.246 35.392-14.573 45.801-27.064 12.491-12.491 20.819-27.064 24.982-43.719 6.246-18.737 8.327-39.556 8.327-62.456v-258.152zM3778.595 131.556h-60.374c-18.737 0-35.392-2.082-49.965-4.164-14.573-4.164-24.982-8.327-35.392-14.573-8.327-6.246-16.655-14.573-20.819-22.901s-6.246-18.737-6.246-31.228c0-20.819 6.246-35.392 18.737-47.883s29.146-16.655 52.047-16.655c18.737 0 35.392 4.164 49.965 14.573 16.655 8.327 31.228 22.901 49.965 43.719v81.193zM1103.391 345.988c10.409 0 18.737-8.327 18.737-18.737v-374.737c0-10.409-8.327-18.737-18.737-18.737h-45.801c-10.409 0-18.737 8.327-18.737 18.737v374.737c0 24.982 45.801 18.737 64.538 18.737zM532.959 345.988h44.237c10.348 0 18.737-7.457 18.737-16.655v-376.51c0-9.198-8.389-16.655-18.737-16.655h-44.237c-10.348 0-18.737 7.457-18.737 16.655v376.51c0 9.198 8.389 16.655 18.737 16.655z" />
<glyph unicode="&#xe905;" glyph-name="home" d="M1024 369.556l-512 397.426-512-397.428v162.038l512 397.426 512-397.428zM896 384v-384h-256v256h-256v-256h-256v384l384 288z" />
<glyph unicode="&#xe906;" glyph-name="wifi-disconnected" horiz-adv-x="1311" d="M637.012-62.223c-16.151 1.938-39.409 9.691-55.561 18.736-10.014 5.653-17.928 11.952-29.073 23.097s-17.444 19.059-23.097 29.073c-46.193 82.534-7.43 184.934 80.757 213.199 40.056 12.921 82.695 8.399 120.005-12.437 18.897-10.66 41.509-33.272 52.169-52.169 20.674-36.987 25.196-80.273 12.437-119.844-17.605-54.753-64.606-93.194-122.428-99.816-15.667-1.777-18.897-1.777-35.21 0.162zM289.756 105.913c-6.622 6.299-11.952 11.952-11.952 12.437 0 1.292 840.358 841.65 841.65 841.65 0.969 0 24.066-23.42 24.066-24.389 0-0.808-840.52-841.327-841.327-841.327-0.323 0-5.815 5.168-12.437 11.629zM875.245 263.228c-2.907 3.23-11.629 10.66-19.22 16.797-39.571 31.495-86.572 53.784-134.057 63.475-48.939 10.014-84.956 10.014-131.634 0-35.21-7.43-39.248-14.213 36.341 61.537l67.028 67.351 8.076-0.969c100.3-11.952 181.219-48.293 254.869-114.352 6.784-6.299 12.437-12.437 12.437-13.89 0-3.392-82.372-85.764-85.764-85.764-1.292 0-5.007 2.584-8.076 5.815zM377.459 305.544c-19.22 19.22-35.049 36.179-35.049 37.633 0 4.199 35.049 34.564 59.76 51.685 31.011 21.643 83.503 47.97 111.445 56.045 3.069 0.808 13.406 3.876 22.935 6.622 18.413 5.491 60.245 13.083 71.228 13.083h6.784l-100.139-100.139c-55.076-55.076-100.462-100.139-100.946-100.139s-16.636 15.828-36.018 35.21zM212.714 470.289c-22.774 22.774-41.509 42.64-41.509 44.093 0 1.292 8.883 10.498 19.866 20.512 52.169 47.485 99.331 79.465 163.452 110.96 77.204 37.956 155.538 59.76 240.656 67.028 43.124 3.715 117.582 1.777 159.091-4.199 27.619-4.038 76.881-14.213 79.465-16.636 0.646-0.646-21.966-24.227-50.231-52.492l-51.685-51.523-23.904 2.1c-139.71 13.083-280.066-27.134-392.641-112.575-14.536-11.144-45.062-37.31-51.846-44.739-2.261-2.261-5.168-4.199-6.461-4.199-1.454 0-21.32 18.736-44.255 41.671zM1040.151 440.247c-63.96 60.083-146.493 107.245-228.866 130.503l-14.859 4.199 97.878 97.878 6.299-1.938c22.774-7.43 77.365-34.079 108.861-52.977 24.227-14.536 54.915-35.856 75.912-52.815 23.097-18.413 54.915-47.97 54.915-50.715 0-3.392-82.372-85.764-85.603-85.764-1.292 0.162-7.914 5.33-14.536 11.629zM41.509 641.494c-22.774 22.774-41.509 42.317-41.509 43.286 0 2.423 30.203 31.495 53.3 51.362 130.019 111.606 295.086 186.549 463.869 210.938 51.685 7.43 85.603 9.852 137.772 9.852 122.266 0.162 234.034-20.997 345.156-65.252l25.519-10.014-47.647-47.485-47.485-47.647-25.519 8.399c-51.038 16.636-113.544 30.042-169.267 36.179-26.327 2.907-133.572 2.907-159.899 0-178.958-19.866-336.596-91.579-468.553-212.876-10.821-10.175-20.835-18.413-21.966-18.413s-20.835 18.736-43.77 41.671zM1208.934 613.714c-57.661 54.43-123.235 100.462-194.786 136.318l-28.426 14.213 92.548 92.548 21.804-11.952c61.698-33.918 114.514-70.582 167.006-116.452 17.767-15.505 44.416-41.671 44.416-43.77 0-2.746-83.018-84.795-85.603-84.795-1.292 0.162-8.883 6.299-16.959 13.89z" />
<glyph unicode="&#xe907;" glyph-name="quill" d="M0-64c128 384 463 1024 1024 1024-263-211-384-704-576-704s-192 0-192 0l-192-320h-64z" />
<glyph unicode="&#xe908;" glyph-name="search" d="M992.262 88.604l-242.552 206.294c-25.074 22.566-51.89 32.926-73.552 31.926 57.256 67.068 91.842 154.078 91.842 249.176 0 212.078-171.922 384-384 384-212.076 0-384-171.922-384-384s171.922-384 384-384c95.098 0 182.108 34.586 249.176 91.844-1-21.662 9.36-48.478 31.926-73.552l206.294-242.552c35.322-39.246 93.022-42.554 128.22-7.356s31.892 92.898-7.354 128.22zM384 320c-141.384 0-256 114.616-256 256s114.616 256 256 256 256-114.616 256-256-114.614-256-256-256z" />
<glyph unicode="&#xe910;" glyph-name="headphones" d="M288 384h-64v-448h64c17.6 0 32 14.4 32 32v384c0 17.6-14.4 32-32 32zM736 384c-17.602 0-32-14.4-32-32v-384c0-17.6 14.398-32 32-32h64v448h-64zM1024 448c0 282.77-229.23 512-512 512s-512-229.23-512-512c0-61.412 10.83-120.29 30.656-174.848-19.478-33.206-30.656-71.87-30.656-113.152 0-112.846 83.448-206.188 192-221.716v443.418c-31.914-4.566-61.664-15.842-87.754-32.378-5.392 26.718-8.246 54.364-8.246 82.676 0 229.75 186.25 416 416 416s416-186.25 416-416c0-28.314-2.83-55.968-8.22-82.696-26.1 16.546-55.854 27.848-87.78 32.418v-443.44c108.548 15.532 192 108.874 192 221.714 0 41.274-11.178 79.934-30.648 113.138 19.828 54.566 30.648 113.452 30.648 174.866z" />
<glyph unicode="&#xe91f;" glyph-name="book" d="M896 832v-832h-672c-53.026 0-96 42.98-96 96s42.974 96 96 96h608v768h-640c-70.398 0-128-57.6-128-128v-768c0-70.4 57.602-128 128-128h768v896h-64zM224.056 128v0c-0.018-0.002-0.038 0-0.056 0-17.672 0-32-14.326-32-32s14.328-32 32-32c0.018 0 0.038 0.002 0.056 0.002v-0.002h607.89v64h-607.89z" />
<glyph unicode="&#xe920;" glyph-name="books" horiz-adv-x="1152" d="M224 832h-192c-17.6 0-32-14.4-32-32v-704c0-17.6 14.4-32 32-32h192c17.6 0 32 14.4 32 32v704c0 17.6-14.4 32-32 32zM192 640h-128v64h128v-64zM544 832h-192c-17.6 0-32-14.4-32-32v-704c0-17.6 14.4-32 32-32h192c17.6 0 32 14.4 32 32v704c0 17.6-14.4 32-32 32zM512 640h-128v64h128v-64zM765.088 782.52l-171.464-86.394c-15.716-7.918-22.096-27.258-14.178-42.976l287.978-571.548c7.918-15.718 27.258-22.098 42.976-14.178l171.464 86.392c15.716 7.92 22.096 27.26 14.178 42.974l-287.978 571.55c-7.92 15.718-27.26 22.1-42.976 14.18z" />
<glyph unicode="&#xe925;" glyph-name="files-empty" d="M917.806 602.924c-22.21 30.292-53.174 65.7-87.178 99.704s-69.412 64.964-99.704 87.178c-51.574 37.82-76.592 42.194-90.924 42.194h-368c-44.114 0-80-35.888-80-80v-736c0-44.112 35.886-80 80-80h608c44.112 0 80 35.888 80 80v496c0 14.332-4.372 39.35-42.194 90.924zM785.374 657.374c30.7-30.7 54.8-58.398 72.58-81.374h-153.954v153.946c22.982-17.78 50.678-41.878 81.374-72.572v0zM896 16c0-8.672-7.328-16-16-16h-608c-8.672 0-16 7.328-16 16v736c0 8.672 7.328 16 16 16 0 0 367.956 0.002 368 0v-224c0-17.672 14.324-32 32-32h224v-496zM602.924 917.804c-51.574 37.822-76.592 42.196-90.924 42.196h-368c-44.112 0-80-35.888-80-80v-736c0-38.632 27.528-70.958 64-78.39v814.39c0 8.672 7.328 16 16 16h486.876c-9.646 7.92-19.028 15.26-27.952 21.804z" />
<glyph unicode="&#xe926;" glyph-name="file-text2" d="M917.806 730.924c-22.212 30.292-53.174 65.7-87.178 99.704s-69.412 64.964-99.704 87.178c-51.574 37.82-76.592 42.194-90.924 42.194h-496c-44.112 0-80-35.888-80-80v-864c0-44.112 35.888-80 80-80h736c44.112 0 80 35.888 80 80v624c0 14.332-4.372 39.35-42.194 90.924zM785.374 785.374c30.7-30.7 54.8-58.398 72.58-81.374h-153.954v153.946c22.984-17.78 50.678-41.878 81.374-72.572zM896 16c0-8.672-7.328-16-16-16h-736c-8.672 0-16 7.328-16 16v864c0 8.672 7.328 16 16 16 0 0 495.956 0.002 496 0v-224c0-17.672 14.326-32 32-32h224v-624zM736 128h-448c-17.672 0-32 14.326-32 32s14.328 32 32 32h448c17.674 0 32-14.326 32-32s-14.326-32-32-32zM736 256h-448c-17.672 0-32 14.326-32 32s14.328 32 32 32h448c17.674 0 32-14.326 32-32s-14.326-32-32-32zM736 384h-448c-17.672 0-32 14.326-32 32s14.328 32 32 32h448c17.674 0 32-14.326 32-32s-14.326-32-32-32z" />
<glyph unicode="&#xe92a;" glyph-name="file-video" d="M917.806 730.924c-22.208 30.292-53.174 65.7-87.178 99.704s-69.412 64.964-99.704 87.178c-51.574 37.82-76.594 42.194-90.924 42.194h-496c-44.112 0-80-35.888-80-80v-864c0-44.112 35.882-80 80-80h736c44.112 0 80 35.888 80 80v624c0 14.332-4.372 39.35-42.194 90.924v0 0zM785.374 785.374c30.7-30.7 54.8-58.398 72.58-81.374h-153.954v153.946c22.98-17.78 50.678-41.878 81.374-72.572v0 0zM896 16c0-8.672-7.328-16-16-16h-736c-8.672 0-16 7.328-16 16v864c0 8.672 7.328 16 16 16 0 0 495.956 0.002 496 0v-224c0-17.672 14.32-32 32-32h224v-624zM256 448h320v-320h-320v320zM576 320l192 128v-320l-192 128z" />
<glyph unicode="&#xe942;" glyph-name="phone" d="M704 320c-64-64-64-128-128-128s-128 64-192 128-128 128-128 192 64 64 128 128-128 256-192 256-192-192-192-192c0-128 131.5-387.5 256-512s384-256 512-256c0 0 192 128 192 192s-192 256-256 192z" />
<glyph unicode="&#xe958;" glyph-name="mobile" d="M736 960h-448c-52.8 0-96-43.2-96-96v-832c0-52.8 43.2-96 96-96h448c52.8 0 96 43.2 96 96v832c0 52.8-43.2 96-96 96zM384 912h256v-32h-256v32zM512 0c-35.346 0-64 28.654-64 64s28.654 64 64 64 64-28.654 64-64-28.654-64-64-64zM768 192h-512v640h512v-640z" />
<glyph unicode="&#xea90;" glyph-name="facebook" d="M608 768h160v192h-160c-123.514 0-224-100.486-224-224v-96h-128v-192h128v-512h192v512h160l32 192h-192v96c0 17.346 14.654 32 32 32z" />
<glyph unicode="&#xea92;" glyph-name="instagram" d="M512 867.8c136.8 0 153-0.6 206.8-3 50-2.2 77-10.6 95-17.6 23.8-9.2 41-20.4 58.8-38.2 18-18 29-35 38.4-58.8 7-18 15.4-45.2 17.6-95 2.4-54 3-70.2 3-206.8s-0.6-153-3-206.8c-2.2-50-10.6-77-17.6-95-9.2-23.8-20.4-41-38.2-58.8-18-18-35-29-58.8-38.4-18-7-45.2-15.4-95-17.6-54-2.4-70.2-3-206.8-3s-153 0.6-206.8 3c-50 2.2-77 10.6-95 17.6-23.8 9.2-41 20.4-58.8 38.2-18 18-29 35-38.4 58.8-7 18-15.4 45.2-17.6 95-2.4 54-3 70.2-3 206.8s0.6 153 3 206.8c2.2 50 10.6 77 17.6 95 9.2 23.8 20.4 41 38.2 58.8 18 18 35 29 58.8 38.4 18 7 45.2 15.4 95 17.6 53.8 2.4 70 3 206.8 3zM512 960c-139 0-156.4-0.6-211-3-54.4-2.4-91.8-11.2-124.2-23.8-33.8-13.2-62.4-30.6-90.8-59.2-28.6-28.4-46-57-59.2-90.6-12.6-32.6-21.4-69.8-23.8-124.2-2.4-54.8-3-72.2-3-211.2s0.6-156.4 3-211c2.4-54.4 11.2-91.8 23.8-124.2 13.2-33.8 30.6-62.4 59.2-90.8 28.4-28.4 57-46 90.6-59 32.6-12.6 69.8-21.4 124.2-23.8 54.6-2.4 72-3 211-3s156.4 0.6 211 3c54.4 2.4 91.8 11.2 124.2 23.8 33.6 13 62.2 30.6 90.6 59s46 57 59 90.6c12.6 32.6 21.4 69.8 23.8 124.2 2.4 54.6 3 72 3 211s-0.6 156.4-3 211c-2.4 54.4-11.2 91.8-23.8 124.2-12.6 34-30 62.6-58.6 91-28.4 28.4-57 46-90.6 59-32.6 12.6-69.8 21.4-124.2 23.8-54.8 2.6-72.2 3.2-211.2 3.2v0zM512 711c-145.2 0-263-117.8-263-263s117.8-263 263-263 263 117.8 263 263c0 145.2-117.8 263-263 263zM512 277.4c-94.2 0-170.6 76.4-170.6 170.6s76.4 170.6 170.6 170.6c94.2 0 170.6-76.4 170.6-170.6s-76.4-170.6-170.6-170.6zM846.8 721.4c0-33.91-27.49-61.4-61.4-61.4s-61.4 27.49-61.4 61.4c0 33.91 27.49 61.4 61.4 61.4s61.4-27.49 61.4-61.4z" />
<glyph unicode="&#xea93;" glyph-name="whatsapp" d="M873 811.2c-95.8 96-223.2 148.8-359 148.8-279.6 0-507.2-227.6-507.2-507.4 0-89.4 23.4-176.8 67.8-253.6l-72-263 269 70.6c74.2-40.4 157.6-61.8 242.4-61.8h0.2c0 0 0 0 0 0 279.6 0 507.4 227.6 507.4 507.4 0 135.6-52.8 263-148.6 359zM514.2 30.4v0c-75.8 0-150 20.4-214.8 58.8l-15.4 9.2-159.6-41.8 42.6 155.6-10 16c-42.4 67-64.6 144.6-64.6 224.4 0 232.6 189.2 421.8 422 421.8 112.6 0 218.6-44 298.2-123.6 79.6-79.8 123.4-185.6 123.4-298.4-0.2-232.8-189.4-422-421.8-422zM745.4 346.4c-12.6 6.4-75 37-86.6 41.2s-20 6.4-28.6-6.4c-8.4-12.6-32.8-41.2-40.2-49.8-7.4-8.4-14.8-9.6-27.4-3.2s-53.6 19.8-102 63c-37.6 33.6-63.2 75.2-70.6 87.8s-0.8 19.6 5.6 25.8c5.8 5.6 12.6 14.8 19 22.2s8.4 12.6 12.6 21.2c4.2 8.4 2.2 15.8-1 22.2s-28.6 68.8-39 94.2c-10.2 24.8-20.8 21.4-28.6 21.8-7.4 0.4-15.8 0.4-24.2 0.4s-22.2-3.2-33.8-15.8c-11.6-12.6-44.4-43.4-44.4-105.8s45.4-122.6 51.8-131.2c6.4-8.4 89.4-136.6 216.6-191.4 30.2-13 53.8-20.8 72.2-26.8 30.4-9.6 58-8.2 79.8-5 24.4 3.6 75 30.6 85.6 60.2s10.6 55 7.4 60.2c-3 5.6-11.4 8.8-24.2 15.2z" />
<glyph unicode="&#xea96;" glyph-name="twitter" d="M1024 733.6c-37.6-16.8-78.2-28-120.6-33 43.4 26 76.6 67.2 92.4 116.2-40.6-24-85.6-41.6-133.4-51-38.4 40.8-93 66.2-153.4 66.2-116 0-210-94-210-210 0-16.4 1.8-32.4 5.4-47.8-174.6 8.8-329.4 92.4-433 219.6-18-31-28.4-67.2-28.4-105.6 0-72.8 37-137.2 93.4-174.8-34.4 1-66.8 10.6-95.2 26.2 0-0.8 0-1.8 0-2.6 0-101.8 72.4-186.8 168.6-206-17.6-4.8-36.2-7.4-55.4-7.4-13.6 0-26.6 1.4-39.6 3.8 26.8-83.4 104.4-144.2 196.2-146-72-56.4-162.4-90-261-90-17 0-33.6 1-50.2 3 93.2-59.8 203.6-94.4 322.2-94.4 386.4 0 597.8 320.2 597.8 597.8 0 9.2-0.2 18.2-0.6 27.2 41 29.4 76.6 66.4 104.8 108.6z" />
<glyph unicode="&#xea9d;" glyph-name="youtube" d="M1013.8 652.8c0 0-10 70.6-40.8 101.6-39 40.8-82.6 41-102.6 43.4-143.2 10.4-358.2 10.4-358.2 10.4h-0.4c0 0-215 0-358.2-10.4-20-2.4-63.6-2.6-102.6-43.4-30.8-31-40.6-101.6-40.6-101.6s-10.2-82.8-10.2-165.8v-77.6c0-82.8 10.2-165.8 10.2-165.8s10-70.6 40.6-101.6c39-40.8 90.2-39.4 113-43.8 82-7.8 348.2-10.2 348.2-10.2s215.2 0.4 358.4 10.6c20 2.4 63.6 2.6 102.6 43.4 30.8 31 40.8 101.6 40.8 101.6s10.2 82.8 10.2 165.8v77.6c-0.2 82.8-10.4 165.8-10.4 165.8zM406.2 315.2v287.8l276.6-144.4-276.6-143.4z" />
<glyph unicode="&#xeaa0;" glyph-name="vimeo" d="M1023.6 686c-4.6-99.6-74.2-236.2-208.8-409.4-139.2-180.8-257-271.4-353.4-271.4-59.6 0-110.2 55-151.4 165.2-27.6 101-55 202-82.6 303-30.6 110.2-63.4 165.2-98.6 165.2-7.6 0-34.4-16.2-80.4-48.2l-48.2 62c50.6 44.4 100.4 88.8 149.4 133.2 67.4 58.2 118 88.8 151.8 92 79.6 7.6 128.8-46.8 147.2-163.4 19.8-125.8 33.6-204 41.4-234.6 23-104.4 48.2-156.6 75.8-156.6 21.4 0 53.6 33.8 96.6 101.6 42.8 67.6 65.8 119.2 69 154.6 6.2 58.4-16.8 87.8-69 87.8-24.6 0-49.8-5.6-75.8-16.8 50.4 164.8 146.4 244.8 288.4 240.2 105-2.8 154.6-71 148.6-204.4z" />
<glyph unicode="&#xeac3;" glyph-name="soundcloud" d="M891.96 445.796c-18.086 0-35.348-3.52-51.064-9.856-10.506 114.358-110.29 204.060-232 204.060-29.786 0-58.682-5.63-84.318-15.164-9.96-3.702-12.578-7.52-12.578-14.916v-402.714c0-7.766 6.24-14.234 14.124-14.996 0.336-0.034 363.536-0.21 365.89-0.21 72.904 0 131.986 56.816 131.986 126.894s-59.134 126.902-132.040 126.902zM400 192h32l16 224.22-16 223.78h-32l-16-223.78zM304 192h-32l-16 162.75 16 157.25h32l16-160zM144 192h32l16 128-16 128h-32l-16-128zM16 256h32l16 64-16 64h-32l-16-64z" />
<glyph unicode="&#xead2;" glyph-name="pinterest2" d="M512 960c-282.4 0-512-229.6-512-512s229.6-512 512-512 512 229.6 512 512-229.6 512-512 512zM512 4.4c-45.8 0-89.8 7-131.4 19.8 18 29.4 45.2 77.8 55.2 116.2 5.4 20.8 27.6 105.4 27.6 105.4 14.4-27.6 56.8-51 101.6-51 133.8 0 230.2 123 230.2 276 0 146.6-119.6 256.2-273.4 256.2-191.4 0-293-128.6-293-268.4 0-65 34.6-146 90-171.8 8.4-4 12.8-2.2 14.8 6 1.4 6.2 9 36.2 12.4 50.4 1 4.4 0.6 8.4-3 12.8-18.4 22.2-33 63.2-33 101.2 0 97.8 74 192.6 200.2 192.6 109 0 185.2-74.2 185.2-180.4 0-120-60.6-203.2-139.4-203.2-43.6 0-76.2 36-65.6 80.2 12.6 52.8 36.8 109.6 36.8 147.6 0 34-18.2 62.4-56.2 62.4-44.6 0-80.2-46-80.2-107.8 0-39.2 13.2-65.8 13.2-65.8s-44-185.8-52-220.4c-9-38.4-5.4-92.2-1.6-127.2-165 64.4-282 224.8-282 412.8 0 245 198.6 443.6 443.6 443.6s443.6-198.6 443.6-443.6c0-245-198.6-443.6-443.6-443.6z" />
</font>
</defs>
</svg>
